<svg xmlns="http://www.w3.org/2000/svg" viewBox="0 0 120 60"><title>  Logo - Vertical</title><desc>  Created with Sketch.</desc><g fill="#220052"><g transform="translate(-0.1372)matrix(0.41997 0 0 0.41997 7.2565 12.703)"><path d="m18.7 77.2h65.9l-32.9-65.7zm32.9-77.2 41.3 82.4h-82.6z"/><polygon points="0 66.9 31 5.1 61.9 66.9"/></g><path d="m51.4 34.9h-3.1l3.8-9.8h2.6l3.9 9.8h-3.1l-0.6-1.6h-2.9zm2.1-6.7-1 2.8h2zm12.4 6.7h-4.6v-9.8h4.6c2.9 0 5 2.2 5 4.9 0 2.7-2.1 4.9-5 4.9zm-0.4-7.3h-1.3v4.8h1.3c1.5 0 2.5-0.9 2.5-2.4 0-1.5-0.9-2.4-2.5-2.4zm13.2 7.5c-3.3 0-5.3-2.3-5.3-5.1 0-2.7 2-5.1 5.3-5.1 3.3 0 5.3 2.3 5.3 5.1 0 2.7-2 5.1-5.3 5.1zm0-2.5c1.5 0 2.4-1.2 2.4-2.5 0-1.4-0.9-2.5-2.4-2.5s-2.4 1.2-2.4 2.5c0 1.4 0.9 2.5 2.4 2.5zm14.6 2.4h2.3v-9.8h-3v4.6l-3.3-4.6h-2.3v9.8h3v-4.7zm8.7-9.8h-3v9.8h3zm2.9 6.9c0.3 2 1.8 3.1 4.1 3.1 2.1 0 4-1 4-3 0-1.4-0.7-2.3-2.9-3.1l-1.1-0.4c-0.6-0.2-0.8-0.5-0.8-0.7 0-0.4 0.5-0.6 0.9-0.6 0.7 0 1 0.4 1.2 1l2.4-0.7c-0.6-1.6-1.7-2.6-3.6-2.6-2.2 0-3.8 1.2-3.8 3.1 0 2.1 2.4 2.7 2.9 2.9l1.1 0.4c0.7 0.2 0.8 0.5 0.8 0.8 0 0.5-0.5 0.7-1.2 0.7-1 0-1.5-0.5-1.7-1.4z"/></g></svg>