<?xml version="1.0" encoding="UTF-8"?><svg width="529px" height="109px" viewBox="0 0 529 109" version="1.1" xmlns="http://www.w3.org/2000/svg" xmlns:xlink="http://www.w3.org/1999/xlink"><g id="Page-1" stroke="none" stroke-width="1" fill="none" fill-rule="evenodd"><g id="Group-2" fill="#000000"><g id="noun_622293_cc" fill-rule="nonzero"><g id="Group"><circle id="Oval" cx="54.8035586" cy="57.5088414" r="2.06896552"></circle><path d="M78.3318897,43.2987586 C77.7021793,42.2750483 77.0152138,41.7066207 76.2326207,41.5611448 C75.7066207,41.4614621 75.1664828,41.5813517 74.7792276,41.875669 C74.1730897,42.3370069 74.0552276,43.2024414 74.5165655,43.8085931 C74.8075172,44.191131 75.2634621,44.375669 75.7066207,44.3500828 C75.7692552,44.4208 75.8514207,44.5245103 75.9450345,44.6726897 C76.3322897,45.7051586 75.8049517,51.4379172 75.0964414,56.1483034 C74.4152828,60.4750621 73.1451724,65.3276552 71.9399586,67.7952414 C71.9140276,66.7621931 71.8652828,65.6998345 71.7747862,64.5756966 C71.6804966,63.3984276 71.5491724,62.2231862 71.4070621,61.0492966 C71.4021793,61.0093931 71.3790345,60.9781655 71.3709517,60.9396 C71.3100828,60.1855448 71.1939862,58.7544552 71.065269,57.1991172 C71.1871724,57.042869 71.3065517,56.8906621 71.4447862,56.6951724 C71.9465379,55.9859862 72.570869,55.1023586 73.8127862,54.3648966 C74.4674207,53.9756138 74.6829379,53.1290345 74.294331,52.4744 C73.9043862,51.8184138 73.0564552,51.6022345 72.4038345,51.9928552 C71.7263862,52.3954345 71.1817793,52.8291586 70.7314759,53.2578345 C70.6417379,52.2365655 70.5692552,51.4621379 70.5376,51.2412276 C70.4298483,50.4875862 69.728731,49.9649655 68.9771172,50.0713793 C68.2228,50.179131 67.6988276,50.8775448 67.807269,51.6318621 C67.8873241,52.1910345 68.3599586,57.9092276 68.6590621,61.6231034 C68.6879448,65.5046069 62.7793931,78.1710345 59.1556,81.2776 C57.5513379,79.178331 53.5945793,74.9144552 47.6234069,74.4268414 L40.9288966,74.2442345 C40.8065793,71.4457931 40.8633931,68.5935586 40.9282207,65.8142207 C40.9484276,64.9609103 40.9686345,64.1096138 40.9834483,63.2610207 C41.0669655,58.4307448 41.2232138,49.4396276 32.8988552,48.7971172 L25.6312138,48.2374483 C21.6609793,47.8400828 18.9838483,46.2607448 18.9575862,46.2452552 C18.3043034,45.8505931 17.4604138,46.0600414 17.0664276,46.7119862 C16.6710897,47.3632552 16.8792,48.2111724 17.531131,48.6065241 C17.6597655,48.6839724 20.7329103,50.5199172 25.3880828,50.9852966 L32.6867034,51.5476552 C37.9816966,51.956469 38.3278621,57.2985931 38.2248276,63.2125241 C38.2106897,64.0557379 38.1904828,64.9016414 38.1709517,65.7495724 C38.1052,68.5318483 38.0466897,71.3898897 38.1662345,74.2753793 C29.7536552,75.0225379 25.5398759,79.3688276 24.0033793,81.4257517 C19.2801793,78.7169655 12.1088414,65.2841793 11.0582069,60.1488138 C11.0544138,60.1302069 11.0417931,60.1164 11.0372414,60.0980552 L10.492469,50.7246483 C10.4480138,49.9642759 9.81157241,49.3944966 9.03503448,49.4275034 C8.38292414,49.4656414 7.88917241,49.9589655 7.78191724,50.5760552 C7.46605517,50.3241655 7.1165931,50.0752276 6.71686897,49.8376552 C6.06088276,49.4463586 5.21565517,49.6645655 4.82637241,50.3192 C4.43776552,50.9738345 4.65328276,51.8204138 5.30791724,52.2096966 C6.54983448,52.9471724 7.17416552,53.8307862 7.67591724,54.5399724 C7.78426207,54.6931034 7.87561379,54.8050759 7.97326897,54.9348 L8.31237241,60.7697655 C8.31633103,60.8364414 8.34714483,60.8925103 8.36002759,60.956069 C8.57554483,64.2597103 8.83744828,66.840869 8.84713103,66.9214345 C8.93990345,67.5631862 9.04184828,68.2107448 9.14321379,68.8578069 C7.40955862,67.4319448 6.32095172,64.5280138 5.63053793,62.6555448 C4.722,60.1912414 4.07881379,57.5181517 3.66462069,54.484069 L3.51442759,53.4165793 C3.1568,50.9253379 2.78772414,48.3492276 3.24571034,46.1280552 C3.27467586,45.9866207 3.36357241,45.5555862 3.51713103,45.3811586 C3.57841379,45.3582621 3.89024828,45.3542207 4.47753103,45.6384276 C4.55026207,45.6734483 4.62569655,45.7024138 4.70382069,45.7239586 C5.76591724,46.023669 7.57827586,46.7672 8.09551724,47.4130759 C8.57033103,48.0091172 9.43913103,48.1034069 10.0338207,47.6285931 C10.6291862,47.1531034 10.7254897,46.2849793 10.2493379,45.6902897 C9.61027586,44.891531 8.5246069,44.2730069 7.53508966,43.8312 C7.43710345,35.8389655 8.46383448,28.274469 10.3678759,23.0421241 C13.4477517,14.5770069 20.8393241,7.75453793 30.1402345,4.79118621 C39.9759034,1.65675862 52.8018759,4.2396 60.6325517,10.9334207 C69.6539724,18.6428828 70.4486897,30.8290345 71.216469,42.6144552 C71.2817931,43.615931 71.347131,44.6167448 71.4171724,45.6135172 C71.4683448,46.3409241 72.0738207,46.8965517 72.7917517,46.8965517 C72.8240828,46.8965517 72.8570759,46.8952 72.8894069,46.8931862 C73.6497793,46.8399862 74.2222483,46.1806345 74.1690345,45.4209379 C74.099669,44.4282069 74.034331,43.4321241 73.9696828,42.4346759 C73.1641931,30.0788 72.3310759,17.302 62.4253655,8.8362069 C53.7811034,1.44935172 40.1624414,-1.29646897 29.3023862,2.16325517 C19.1932828,5.38388966 11.1457379,12.8367448 7.77491034,22.099269 C5.22263448,29.1138483 4.76726897,37.6095172 4.7670069,42.7956552 C2.99993103,42.2654483 1.96873103,42.9885241 1.48113103,43.5250483 C0.889806897,44.1763172 0.669572414,44.9609379 0.543627586,45.5711172 C-0.0113241379,48.2637379 0.410951724,51.2095862 0.783393103,53.8085931 L0.931558621,54.8572138 C1.37336552,58.0919862 2.06369655,60.9550069 3.04161379,63.6099034 C4.03568276,66.3038621 5.69853793,70.8135724 9.30441379,72.1248552 C9.43675862,72.1730069 9.57144828,72.1889241 9.7053931,72.1959034 C12.0397931,84.9239586 16.6448828,97.9947448 29.0498345,105.621614 C32.3081793,107.624579 36.8569517,108.636166 41.3713655,108.636166 C45.5726069,108.636166 49.7442069,107.759283 52.8146621,105.990014 C56.4319862,103.905559 60.1516828,100.456607 63.0194069,96.5274621 C67.3055034,90.6559586 71.2649655,79.7669517 71.8448414,72.2541655 C71.8544414,72.1299034 71.857131,71.9993379 71.8655448,71.874069 C71.9467862,71.8483862 72.0282759,71.8228 72.1061517,71.7807034 C75.4742759,69.967669 77.3324414,59.6854759 77.8227448,56.5678759 C78.6006207,51.4008552 79.3205793,44.9043586 78.3318897,43.2987586 Z M52.1155724,87.6340276 C49.0033655,88.2805793 45.6897931,88.4960966 42.6563862,88.4960966 C36.8044138,88.4960966 31.9963586,87.6946483 31.6946345,87.6434621 C30.9436966,87.5155034 30.4392414,86.8036138 30.5665379,86.0526759 C30.6944966,85.3017379 31.4110897,84.7979586 32.1573241,84.9239034 C32.2644138,84.9420828 42.9581103,86.7207724 51.5538759,84.9333379 C52.2994345,84.7777655 53.0294897,85.2566207 53.1850759,86.0028414 C53.3399724,86.7490621 52.861131,87.4791172 52.1155724,87.6340276 Z" id="Shape"></path><path d="M63.5198069,46.7120138 C63.1258207,46.060069 62.2765379,45.8499448 61.6259448,46.2473103 C61.5996828,46.2628 58.9643034,47.8360828 54.9866621,48.2347862 L47.6873655,48.7971448 C46.927669,48.8557379 46.3592414,49.519131 46.4178345,50.2781517 C46.4737379,51.0021517 47.0778621,51.5517241 47.7917517,51.5517241 C47.8274483,51.5517241 47.8631448,51.5503724 47.8988414,51.5476828 L55.2297931,50.9826207 C59.8533103,50.519931 62.9264552,48.684 63.0550897,48.6065379 C63.7070345,48.2112 63.9151448,47.3632828 63.5198069,46.7120138 Z" id="Shape"></path><circle id="Oval" cx="26.2793517" cy="57.5088414" r="2.06896552"></circle></g></g><path d="M145.905,78.055 C145.905,78.055 143.375,77.945 139.415,77.945 C135.785,77.945 132.925,78.055 132.925,78.055 C133.64,77.56 134.685,76.625 134.685,74.59 C134.685,72.775 133.86,69.86 132.925,66.34 L132.155,63.59 L120.495,63.59 L119.725,66.34 C118.79,69.86 117.91,72.775 117.91,74.59 C117.91,76.625 119.01,77.56 119.725,78.055 C119.725,78.055 117.47,77.945 114.06,77.945 C110.54,77.945 108.56,78.055 108.56,78.055 C110.65,76.075 111.64,72.665 113.895,65.02 L120.66,42.085 C120.88,41.425 121.045,40.765 121.045,40.05 C121.045,39.28 120.715,38.95 120.66,38.895 L134.52,38.895 C134.52,38.95 134.19,39.28 134.19,40.05 C134.19,40.765 134.355,41.425 134.52,42.085 L140.79,65.02 C142.88,72.72 143.87,76.075 145.905,78.055 Z M130.945,58.805 L127.37,45.33 C126.765,43.02 126.435,41.7 126.38,41.315 C126.325,41.59 125.995,42.8 125.335,45.33 L121.76,58.805 L130.945,58.805 Z M169.005,69.09 L169.005,52.095 C169.005,52.095 167.41,50.555 164.33,50.555 C159.16,50.555 156.63,54.515 156.63,62.435 C156.63,65.955 156.795,73.49 162.955,73.49 C167.685,73.49 169.005,69.09 169.005,69.09 Z M178.135,76.13 L178.63,77.065 L169.115,78.44 L169.39,69.695 C167.96,77.725 162.845,78.66 159.765,78.66 C148.71,78.66 148.38,66.615 148.38,62.93 C148.38,49.675 155.53,45.935 162.075,45.935 C167.025,45.935 169.005,48.135 169.005,48.135 C169.005,40.05 168.4,38.51 167.63,37.025 L167.135,36.09 L176.98,34.715 C176.98,34.715 176.815,40.765 176.815,46.375 L176.815,63.48 C176.815,72.995 177.255,74.535 178.135,76.13 Z M214.27,61.83 C214.27,70.025 210.42,78.715 198.705,78.715 C188.75,78.715 183.69,72.335 183.69,62.765 C183.69,54.57 187.54,45.935 199.255,45.935 C209.21,45.935 214.27,52.26 214.27,61.83 Z M205.91,62.16 C205.91,54.405 204.095,50.665 198.925,50.665 C193.975,50.665 192.05,54.515 192.05,62.435 C192.05,70.19 193.865,73.93 199.035,73.93 C203.985,73.93 205.91,70.08 205.91,62.16 Z M249.69,77.12 L250.185,78.055 C250.185,78.055 248.535,77.945 244.41,77.945 C240.285,77.945 238.635,78.055 238.635,78.055 L239.13,77.12 C240.01,75.525 240.56,75.195 240.56,63.205 C240.56,56.935 240.395,54.57 239.625,53.195 C239.02,52.095 237.865,51.105 235.28,51.105 C230.55,51.105 229.34,55.505 229.34,55.505 L229.34,63.15 C229.34,75.085 229.835,75.525 230.715,77.12 L231.21,78.055 C231.21,78.055 229.56,77.945 225.49,77.945 C221.365,77.945 219.66,78.055 219.66,78.055 L220.155,77.12 C221.035,75.525 221.53,75.085 221.53,63.095 L221.53,61.115 C221.53,51.6 221.035,50.06 220.155,48.465 L219.66,47.53 L229.285,46.155 L228.955,54.9 C230.495,46.265 236.49,45.935 238.91,45.935 C242.32,45.935 245.29,46.87 246.885,49.785 C248.15,52.095 248.37,54.735 248.37,61.17 L248.37,63.095 C248.37,75.085 248.81,75.525 249.69,77.12 Z M266.575,38.73 C266.575,41.645 264.54,42.58 261.735,42.58 C258.985,42.58 256.895,41.645 256.895,38.95 C256.895,36.035 258.875,35.1 261.735,35.1 C264.43,35.1 266.575,36.035 266.575,38.73 Z M255.960994,78.0549366 C255.960331,78.0549787 255.96,78.055 255.96,78.055 L255.960994,78.0549366 Z M255.96,78.055 L256.455,77.12 C257.445,75.305 257.83,74.425 257.83,63.095 L257.83,61.115 C257.83,51.6 257.335,50.06 256.455,48.465 L255.96,47.53 L266.135,46.155 C266.135,46.155 265.64,49.235 265.64,61.06 L265.64,63.095 C265.64,73.27 265.86,74.92 267.015,77.12 L267.51,78.055 C267.51,78.055 265.86,77.945 261.79,77.945 C257.72245,77.945 256.007961,78.0519574 255.960994,78.0549366 L255.96,78.055 Z M294.075,68.87 C294.075,73.875 290.94,78.385 282.36,78.385 C276.31,78.385 273.12,76.625 273.12,76.625 C273.12,76.625 273.23,75.58 273.23,72.885 C273.23,70.135 273.12,68.485 273.12,68.485 C275.43,72.115 277.85,73.765 281.645,73.765 C285.66,73.765 286.815,72.005 286.815,70.08 C286.815,68.1 285.77,67.165 283.845,66.12 L279.335,63.645 C276.31,62.105 273.23,60.015 273.23,54.9 C273.23,48.96 277.355,45.99 284.23,45.99 C290.39,45.99 293.03,47.695 293.03,47.695 C293.03,47.695 292.92,48.795 292.92,51.6 C292.92,54.24 293.03,55.78 293.03,55.78 C290.94,52.645 288.85,50.5 285,50.5 C282.8,50.5 280.27,50.94 280.27,53.8 C280.27,55.835 281.535,56.715 284.12,58.035 L287.915,60.015 C291.655,61.995 294.075,64.305 294.075,68.87 Z M341.54,50.5 C341.54,61.39 332.96,63.15 326.415,63.15 C324.325,63.15 322.51,62.875 322.51,62.875 C322.51,73.875 322.785,74.92 323.995,77.065 L324.545,78.055 C324.545,78.055 322.84,77.945 318.605,77.945 C314.48,77.945 312.775,78.055 312.775,78.055 L313.27,77.12 C314.37,75.085 314.645,74.645 314.645,58.145 C314.645,42.14 314.425,41.92 313.27,39.72 L312.775,38.785 C312.775,38.785 314.535,38.895 317.395,38.895 C319.76,38.895 323.555,38.73 325.26,38.73 C331.145,38.73 341.54,39.115 341.54,50.5 Z M333.125,50.61 C333.125,43.9 328.505,43.13 325.095,43.13 C323.61,43.13 322.51,43.185 322.51,43.185 L322.51,58.64 C322.51,58.64 323.115,58.805 325.425,58.805 C332.795,58.805 333.125,53.635 333.125,50.61 Z M372.065,55.23 C372.065,58.97 370.91,64.745 359.415,64.745 C355.675,64.745 353.585,64.305 353.585,64.305 C353.585,67.715 354.795,73.6 362.33,73.6 C369.59,73.6 371.46,70.41 371.625,70.08 C371.625,74.37 368.545,78.66 360.02,78.66 C349.075,78.66 345.39,71.73 345.39,62.765 C345.39,50.775 351.495,45.935 359.58,45.935 C365.63,45.935 372.065,48.08 372.065,55.23 Z M364.31,55.285 C364.31,53.525 363.925,50.06 359.525,50.06 C355.235,50.06 353.42,53.25 353.42,60.18 C353.42,60.18 354.685,60.51 358.095,60.51 C362.77,60.51 364.31,58.365 364.31,55.285 Z M398.025,55.615 C396.43,53.25 394.395,52.315 392.03,52.315 C387.685,52.315 386.86,55.01 386.86,55.01 L386.86,63.095 C386.86,75.085 387.41,75.525 388.345,77.065 L388.895,78.055 C388.895,78.055 387.08,77.945 383.01,77.945 C378.885,77.945 377.18,78.055 377.18,78.055 L377.675,77.12 C378.555,75.525 379.05,75.085 379.05,63.095 L379.05,61.115 C379.05,51.6 378.555,50.06 377.675,48.465 L377.18,47.53 L386.695,46.155 L386.475,54.625 C387.74,46.815 392.14,45.935 394.23,45.935 C397.09,45.935 398.025,46.925 398.025,46.925 C398.025,46.925 397.915,48.245 397.915,51.105 C397.915,54.405 398.025,55.615 398.025,55.615 Z M420.96,55.7799985 C420.96,55.7799985 420.96,55.7799985 420.96,55.7799985 Z M420.96,55.78 C418.87,52.645 416.78,50.5 412.93,50.5 C410.73,50.5 408.2,50.94 408.2,53.8 C408.2,55.835 409.465,56.715 412.05,58.035 L415.845,60.015 C419.585,61.995 422.005,64.305 422.005,68.87 C422.005,73.875 418.87,78.385 410.29,78.385 C404.24,78.385 401.05,76.625 401.05,76.625 C401.05,76.625 401.16,75.58 401.16,72.885 C401.16,70.135 401.05,68.485 401.05,68.485 C403.36,72.115 405.78,73.765 409.575,73.765 C413.59,73.765 414.745,72.005 414.745,70.08 C414.745,68.1 413.7,67.165 411.775,66.12 L407.265,63.645 C404.24,62.105 401.16,60.015 401.16,54.9 C401.16,48.96 405.285,45.99 412.16,45.99 C418.32,45.99 420.96,47.695 420.96,47.695 C420.96,47.695 420.85,48.795 420.85,51.6 C420.85,54.2384911 420.959874,55.7782393 420.96,55.7799985 L420.96,55.78 Z M457.59,61.83 C457.59,70.025 453.74,78.715 442.025,78.715 C432.07,78.715 427.01,72.335 427.01,62.765 C427.01,54.57 430.86,45.935 442.575,45.935 C452.53,45.935 457.59,52.26 457.59,61.83 Z M449.23,62.16 C449.23,54.405 447.415,50.665 442.245,50.665 C437.295,50.665 435.37,54.515 435.37,62.435 C435.37,70.19 437.185,73.93 442.355,73.93 C447.305,73.93 449.23,70.08 449.23,62.16 Z M493.01,77.12 L493.505,78.055 C493.505,78.055 491.855,77.945 487.73,77.945 C483.605,77.945 481.955,78.055 481.955,78.055 L482.45,77.12 C483.33,75.525 483.88,75.195 483.88,63.205 C483.88,56.935 483.715,54.57 482.945,53.195 C482.34,52.095 481.185,51.105 478.6,51.105 C473.87,51.105 472.66,55.505 472.66,55.505 L472.66,63.15 C472.66,75.085 473.155,75.525 474.035,77.12 L474.53,78.055 C474.53,78.055 472.88,77.945 468.81,77.945 C464.685,77.945 462.98,78.055 462.98,78.055 L463.475,77.12 C464.355,75.525 464.85,75.085 464.85,63.095 L464.85,61.115 C464.85,51.6 464.355,50.06 463.475,48.465 L462.98,47.53 L472.605,46.155 L472.275,54.9 C473.815,46.265 479.81,45.935 482.23,45.935 C485.64,45.935 488.61,46.87 490.205,49.785 C491.47,52.095 491.69,54.735 491.69,61.17 L491.69,63.095 C491.69,75.085 492.13,75.525 493.01,77.12 Z M519.08,69.035 L519.08,52.095 C519.08,52.095 517.485,50.555 514.515,50.555 C509.4,50.555 506.925,54.515 506.925,62.38 C506.925,65.845 507.09,73.435 513.14,73.435 C517.76,73.435 519.08,69.035 519.08,69.035 Z M528.155,76.13 L528.65,77.065 L519.135,78.44 L519.465,69.64 C517.98,77.67 512.865,78.605 509.95,78.605 C498.895,78.605 498.675,66.23 498.675,62.875 C498.675,49.62 505.825,45.935 512.26,45.935 C518.09,45.935 520.18,48.795 520.18,48.795 L527.385,45.88 C527.385,45.88 526.89,49.62 526.89,61.445 L526.89,63.48 C526.89,72.995 527.275,74.535 528.155,76.13 Z" id="Adonis-Persona"></path></g></g></svg>